<?xml version="1.0" standalone="no"?>
<!DOCTYPE svg PUBLIC "-//W3C//DTD SVG 20010904//EN"
 "http://www.w3.org/TR/2001/REC-SVG-20010904/DTD/svg10.dtd">
<svg version="1.0" xmlns="http://www.w3.org/2000/svg"
 width="84.000000pt" height="84.000000pt" viewBox="0 0 512.000000 512.000000"
 preserveAspectRatio="xMidYMid meet">
<metadata>
Created by potrace 1.15, written by Peter Selinger 2001-2017
</metadata>
<g transform="translate(0.000000,512.000000) scale(0.100000,-0.100000)"
fill="#000000" stroke="none">
<path d="M2315 5104 c-385 -55 -599 -117 -880 -254 -246 -121 -448 -264 -654
-465 -404 -394 -653 -877 -748 -1450 -26 -158 -26 -602 0 -760 77 -465 258
-875 544 -1230 102 -127 311 -329 439 -426 364 -274 772 -440 1234 -501 123
-16 497 -16 620 0 623 82 1150 356 1581 820 349 375 574 862 651 1407 16 117
16 502 0 625 -76 572 -309 1058 -701 1463 -390 402 -864 651 -1425 749 -97 16
-172 21 -376 23 -140 2 -268 1 -285 -1z m585 -129 c407 -57 794 -217 1128
-467 125 -93 387 -355 480 -480 202 -270 342 -566 421 -890 50 -205 65 -338
65 -578 0 -379 -64 -681 -218 -1020 -117 -259 -270 -474 -504 -710 -156 -157
-165 -164 -179 -145 -7 11 -42 61 -76 110 -76 110 -301 338 -412 417 -44 31
-114 75 -155 99 -41 23 -77 44 -79 45 -2 2 31 40 73 85 42 44 105 125 141 178
66 99 159 285 189 377 17 51 17 51 67 57 187 22 320 203 279 379 -14 59 -48
123 -83 156 -22 21 -23 26 -15 94 11 88 2 272 -18 388 -18 106 -81 294 -129
391 -197 391 -534 661 -965 771 -151 39 -248 42 -309 9 l-44 -23 -41 23 c-126
72 -507 -34 -786 -220 -117 -77 -309 -270 -389 -390 -108 -163 -178 -327 -223
-521 -18 -80 -22 -128 -23 -307 -1 -203 -2 -214 -23 -235 -44 -48 -67 -117
-66 -203 0 -88 19 -140 74 -207 37 -44 135 -95 201 -104 48 -6 48 -7 65 -58
30 -92 123 -277 189 -377 36 -53 100 -134 142 -180 45 -47 73 -84 66 -86 -28
-10 -189 -112 -264 -168 -108 -80 -299 -278 -379 -393 -36 -52 -70 -101 -76
-110 -10 -14 -36 8 -176 149 -90 90 -196 208 -236 261 -251 336 -408 716 -469
1133 -24 165 -24 505 0 670 61 417 219 798 469 1133 93 125 355 387 480 480
378 282 795 440 1288 486 91 8 408 -3 520 -19z m-447 -836 c12 -6 33 -24 47
-39 41 -46 62 -46 114 -1 25 22 54 42 65 46 31 9 196 -23 311 -61 436 -145
764 -503 879 -961 48 -192 47 -439 -3 -637 -27 -104 -54 -173 -55 -140 -2 37
-42 178 -71 247 -42 101 -116 213 -196 297 l-71 75 -27 200 c-23 171 -30 203
-47 218 -28 22 -54 22 -79 -3 -24 -24 -24 -16 0 -174 11 -71 20 -133 20 -138
0 -5 -26 6 -58 24 l-59 32 -73 281 c-96 368 -97 373 -121 386 -26 14 -66 4
-78 -19 -6 -10 -15 -135 -22 -278 -6 -142 -13 -260 -14 -262 -1 -1 -47 5 -101
14 -136 22 -389 21 -519 -1 -127 -22 -248 -57 -349 -100 -44 -19 -82 -33 -84
-30 -3 2 3 66 12 142 22 189 22 209 -9 229 -29 19 -60 11 -79 -19 -7 -12 -24
-115 -37 -230 l-23 -207 -68 -60 c-177 -153 -287 -329 -333 -531 -27 -120 -29
-121 -53 -38 -41 137 -53 213 -59 359 -9 241 33 432 143 655 177 356 526 627
914 709 135 28 154 30 183 15z m627 -946 c38 -148 40 -150 177 -228 62 -36
114 -76 179 -140 134 -133 207 -268 245 -450 27 -131 25 -200 -12 -309 -117
-351 -349 -643 -630 -795 -251 -136 -544 -159 -813 -65 -284 99 -545 349 -697
668 -80 168 -113 278 -112 367 3 127 53 294 124 417 43 73 206 238 284 287
293 186 700 246 1089 159 60 -13 71 -13 91 0 23 15 35 70 35 169 0 26 2 47 4
47 1 0 18 -57 36 -127z m-1182 -1953 c41 -29 42 -32 42 -87 0 -31 9 -92 21
-135 56 -209 228 -376 444 -433 77 -20 232 -21 308 0 258 68 441 285 465 551
7 77 7 78 48 107 l41 29 60 -31 c172 -86 395 -268 526 -428 56 -69 147 -202
147 -215 0 -4 -34 -31 -77 -59 -449 -303 -991 -449 -1523 -410 -318 23 -592
91 -855 214 -157 73 -425 233 -425 254 0 3 14 29 31 57 107 175 327 396 509
512 50 32 182 103 191 104 3 0 25 -14 47 -30z m219 -121 c272 -120 615 -119
887 0 27 12 50 20 52 19 9 -10 -21 -114 -51 -174 -62 -122 -177 -218 -312
-259 -63 -19 -201 -19 -268 0 -152 45 -282 164 -334 306 -20 56 -35 129 -27
129 2 0 26 -10 53 -21z"/>
<path d="M1840 2507 c-39 -14 -80 -67 -80 -104 0 -60 59 -123 114 -123 31 0
85 28 101 54 21 32 21 97 1 129 -29 43 -85 61 -136 44z"/>
<path d="M3213 2513 c-33 -6 -83 -60 -84 -91 -3 -72 15 -107 68 -129 46 -19
93 -10 127 23 81 82 5 218 -111 197z"/>
<path d="M2377 1762 c-24 -26 -21 -68 5 -86 18 -13 53 -16 178 -16 174 0 200
8 200 59 0 55 -19 61 -202 61 -147 0 -167 -2 -181 -18z"/>
</g>
</svg>
